<mxfile host="app.diagrams.net" modified="2024-05-11T02:28:25.805Z" agent="Mozilla/5.0 (Windows NT 10.0; Win64; x64) AppleWebKit/537.36 (KHTML, like Gecko) Chrome/124.0.0.0 Safari/537.36 Edg/124.0.0.0" version="24.4.0" etag="hE1PrJ-MpubH1USPAYCT" type="github">
  <diagram name="第 1 页" id="SPZCnpsqq-wGUwbST4Ok">
    <mxGraphModel>
      <root>
        <mxCell id="0" />
        <mxCell id="1" parent="0" />
      </root>
    </mxGraphModel>
  </diagram>
</mxfile>
